<svg xmlns="http://www.w3.org/2000/svg" xmlns:xlink="http://www.w3.org/1999/xlink" width="270" zoomAndPan="magnify" viewBox="0 0 202.5 202.499993" height="270" preserveAspectRatio="xMidYMid meet" version="1.0"><path fill="#000000" d="M 136.445312 36.503906 C 131.84375 39.601562 129.945312 41.277344 127.722656 44.210938 C 125.3125 47.402344 125.15625 48.628906 127.167969 48.628906 C 127.980469 48.628906 129.734375 49.292969 131.0625 50.101562 L 133.480469 51.570312 L 135.054688 48.417969 C 135.921875 46.683594 138.183594 44.105469 140.082031 42.6875 C 143.40625 40.203125 143.496094 40.039062 142.515625 38.144531 C 140.644531 34.523438 139.75 34.28125 136.445312 36.503906 M 112.222656 49.78125 C 105.898438 51.742188 102.101562 56.101562 98.085938 66.011719 C 95.730469 71.824219 92.46875 74.527344 82.597656 78.835938 C 69.152344 84.707031 61.003906 91.78125 55.769531 102.125 C 49.667969 114.183594 49.484375 130.671875 55.316406 142.523438 C 64.625 161.433594 87.707031 172.597656 109.5 168.726562 C 128.660156 165.324219 142.558594 153.6875 148.480469 136.089844 C 152.484375 124.191406 151.238281 112.046875 144.613281 98.339844 C 140.109375 89.027344 139.945312 87.152344 142.886719 78.589844 C 144.839844 72.902344 145.1875 70.976562 144.765625 68.164062 C 143.839844 61.957031 141.804688 58.320312 137.566406 55.296875 L 135.601562 53.898438 L 136.597656 56.6875 C 138.195312 61.164062 137.867188 67.167969 135.648438 74.121094 C 133.691406 80.253906 133.632812 80.957031 133.542969 99.878906 C 133.457031 117.320312 133.277344 119.949219 131.824219 125.316406 C 127.253906 142.160156 116.089844 155.890625 103.046875 160.703125 C 93.867188 164.089844 90.128906 163.132812 97.148438 159.191406 C 105.640625 154.421875 116.421875 141.980469 121.167969 131.480469 C 125.292969 122.347656 127.808594 110.398438 129.4375 92.195312 C 129.9375 86.621094 131.125 79.9375 132.464844 75.167969 C 135.96875 62.683594 135.246094 56.3125 129.953125 53.089844 C 123.332031 49.050781 115.949219 53.042969 110.351562 63.695312 C 108.867188 66.519531 107.355469 68.828125 106.988281 68.828125 C 105.402344 68.828125 105.621094 67.128906 107.792969 62.582031 C 110.746094 56.398438 114.320312 52.222656 118.378906 50.210938 L 121.574219 48.632812 L 118.582031 48.683594 C 116.9375 48.710938 114.074219 49.203125 112.222656 49.78125 M 112.015625 72.527344 C 110.875 74.5625 106.351562 81.210938 101.960938 87.304688 C 85.90625 109.597656 80.554688 121.296875 78.929688 137.660156 C 78.039062 146.59375 81.351562 159.789062 84.335938 159.21875 C 85.40625 159.015625 85.699219 158.097656 85.84375 154.484375 C 86.519531 137.601562 90.511719 123.96875 101.417969 101.265625 C 104.15625 95.566406 108.214844 86.859375 110.433594 81.921875 C 112.65625 76.984375 114.808594 72.359375 115.21875 71.644531 C 116.226562 69.886719 116.15625 68.828125 115.027344 68.832031 C 114.515625 68.832031 113.160156 70.496094 112.015625 72.527344 M 88.65625 81 C 77.953125 89.15625 73.246094 93.722656 68.828125 100.246094 C 63.605469 107.949219 61.242188 114.929688 60.777344 124.011719 C 60.421875 130.980469 60.578125 132.277344 62.464844 138.082031 C 63.609375 141.597656 65.863281 146.515625 67.472656 149.007812 C 70.488281 153.675781 72.132812 154.59375 69.964844 150.40625 C 65.90625 142.558594 64.753906 128.664062 67.328125 118.605469 C 70.980469 104.324219 77.652344 95.015625 95.578125 79.179688 C 99.410156 75.792969 100.457031 74.019531 98.570312 74.113281 C 98.054688 74.136719 93.59375 77.234375 88.65625 81 M 142.148438 128.230469 C 142.148438 128.804688 141.464844 131.480469 140.632812 134.183594 C 138.53125 140.988281 132.570312 149.617188 126.753906 154.277344 C 122.304688 157.84375 121.421875 159.355469 123.789062 159.355469 C 125.5625 159.355469 135.707031 149.1875 138.398438 144.707031 C 141.164062 140.109375 144.34375 131.683594 144.375 128.871094 C 144.386719 127.863281 143.941406 127.1875 143.269531 127.1875 C 142.652344 127.1875 142.148438 127.65625 142.148438 128.230469 " fill-opacity="1" fill-rule="evenodd"/></svg>